name Walk9.mot
datacolumns 19
datarows 10
range 1.37000000 1.41500000
endheader

                time	   L_ground_force_vx	   L_ground_force_vy	   L_ground_force_vz	   L_ground_force_px	   L_ground_force_py	   L_ground_force_pz	   R_ground_force_vx	   R_ground_force_vy	   R_ground_force_vz	   R_ground_force_px	   R_ground_force_py	   R_ground_force_pz	   L_ground_torque_x	   L_ground_torque_y	   L_ground_torque_z	   R_ground_torque_x	   R_ground_torque_y	   R_ground_torque_z	
          1.37000000	         -6.06241539	         88.30072408	         -7.83548798	         -0.00098531	          0.00000000	          0.00170891	         -0.00000014	          0.00000120	          0.00000005	          0.00000000	          0.00000000	          0.00000000	          0.00000000	          0.19412005	          0.00000000	          0.00000000	         -0.00000002	          0.00000000	
          1.37500000	        -11.13432820	        130.20792830	        -11.04683785	         -0.07532386	          0.00000000	         -0.01018699	         -0.00000017	          0.00000151	          0.00000006	          0.00000000	          0.00000000	          0.00000000	          0.00000000	          0.26546592	          0.00000000	          0.00000000	         -0.00000003	          0.00000000	
          1.38000000	        -17.15149355	        177.81289950	        -14.52220288	         -0.14486821	          0.00000000	         -0.02130115	         -0.00000020	          0.00000182	          0.00000007	          0.00000000	          0.00000000	          0.00000000	          0.00000000	          0.34147238	          0.00000000	          0.00000000	         -0.00000003	          0.00000000	
          1.38500000	        -24.02937431	        228.95054558	        -18.01643897	         -0.20579804	          0.00000000	         -0.03106557	         -0.00000022	          0.00000207	          0.00000008	          0.00000000	          0.00000000	          0.00000000	          0.00000000	          0.41621818	          0.00000000	          0.00000000	         -0.00000003	          0.00000000	
          1.39000000	        -31.67464932	        281.02441030	        -21.16949716	         -0.25616605	          0.00000000	         -0.03923692	         -0.00000023	          0.00000221	          0.00000008	          0.00000000	          0.00000000	          0.00000000	          0.00000000	          0.48263420	          0.00000000	          0.00000000	         -0.00000004	          0.00000000	
          1.39500000	        -39.97675423	        331.88728264	        -23.54462522	         -0.29554176	          0.00000000	         -0.04581498	         -0.00000021	          0.00000215	          0.00000008	          0.00000000	          0.00000000	          0.00000000	          0.00000000	          0.53323075	          0.00000000	          0.00000000	         -0.00000003	          0.00000000	
          1.40000000	        -48.75015244	        380.06401401	        -24.74544810	         -0.32450660	          0.00000000	         -0.05094913	         -0.00000016	          0.00000180	          0.00000006	         -0.00000000	          0.00000000	         -0.00000000	          0.00000000	          0.56044319	          0.00000000	          0.00000000	         -0.00000003	          0.00000000	
          1.40500000	        -57.72898381	        424.73338113	        -24.51660486	         -0.34425033	          0.00000000	         -0.05486441	         -0.00000006	          0.00000103	          0.00000003	         -0.00000000	          0.00000000	         -0.00000000	          0.00000000	          0.55785757	          0.00000000	          0.00000000	         -0.00000001	          0.00000000	
          1.41000000	        -66.63566078	        465.69754557	        -22.78945541	         -0.35626390	          0.00000000	         -0.05780418	          0.00000010	         -0.00000030	         -0.00000002	         -0.00000000	          0.00000000	         -0.00000000	          0.00000000	          0.52161003	          0.00000000	          0.00000000	          0.00000001	          0.00000000	
          1.41500000	        -75.27346806	        503.21146582	        -19.67795234	         -0.36211947	          0.00000000	         -0.05999235	          0.00000034	         -0.00000233	         -0.00000010	         -0.00000000	          0.00000000	         -0.00000000	          0.00000000	          0.45209341	          0.00000000	          0.00000000	          0.00000005	          0.00000000	
